<svg width="11" height="7" viewBox="0 0 11 7" fill="none" xmlns="http://www.w3.org/2000/svg">
<path d="M10.1758 1.48771L5.48826 6.17521C5.44473 6.21879 5.39303 6.25336 5.33612 6.27695C5.27922 6.30054 5.21822 6.31269 5.15662 6.31269C5.09502 6.31269 5.03402 6.30054 4.97712 6.27695C4.92021 6.25336 4.86851 6.21879 4.82498 6.17521L0.137479 1.48771C0.0718482 1.42215 0.0271447 1.33859 0.00902731 1.24762C-0.00909006 1.15664 0.000193357 1.06233 0.0357023 0.976634C0.0712113 0.890936 0.131349 0.8177 0.208503 0.766198C0.285656 0.714696 0.376355 0.687244 0.469119 0.687317H9.84412C9.93688 0.687244 10.0276 0.714696 10.1047 0.766198C10.1819 0.8177 10.242 0.890936 10.2775 0.976634C10.313 1.06233 10.3223 1.15664 10.3042 1.24762C10.2861 1.33859 10.2414 1.42215 10.1758 1.48771Z" fill="#EFF3F8"/>
</svg>
